<svg xmlns="http://www.w3.org/2000/svg" width="55" height="51" fill="none"><path fill="url(#a)" d="M31 17h-2q-1-3-3-3h-2l-1-1v1l2 2h1l1 1h-4q-5 1-6 6v4q1 6 6 6h8q6 0 6-6v-4q0-5-6-6"/><g filter="url(#b)"><path fill="#0062FF" d="M30 20h-6q-4 0-4 3v5q0 2 4 2h6q4 0 4-2v-5q0-3-4-3"/></g><g filter="url(#c)"><mask id="e" width="23" height="18" x="20" y="20" fill="#000" maskUnits="userSpaceOnUse"><path fill="#fff" d="M20 20h23v18H20z"/><path fill-rule="evenodd" d="M34 21h1q6 1 6 6v4q0 6-6 6h-8q-6 0-6-6v-4q0-5 6-6h7m-4 9h-1v1l-1 1-1-1v-1h-1v-2h1v-1h2v1h1zm4-2zl-1-1zm2 3zl-1 1z" clip-rule="evenodd"/></mask><path fill="none" d="M34 21h1q6 1 6 6v4q0 6-6 6h-8q-6 0-6-6v-4q0-5 6-6h7m-4 9h-1v1l-1 1-1-1v-1h-1v-2h1v-1h2v1h1zm4-2zl-1-1zm2 3zl-1 1z" clip-rule="evenodd"/><path fill="url(#d)" d="M35 21v1zm-1 0zm1 16v-1zm-8 0v-1zm0-16v1zm5 0v1zm-3 9v-1l-1 1zm-2 0h1l-1-1zm0-2v1l1-1zm2 0h-1l1 1zm6-8zv2h1zm7 7q0-6-7-7v2q5 0 5 5zm0 4v-4h-2v4zm-7 7q7-1 7-7h-2q0 5-5 5zm-4 0h4v-2h-4zm-4 0h4v-2h-4zm-7-7q1 7 7 7v-2q-5 0-5-5zm0-4v4h2v-4zm7-7q-6 1-7 7h2q0-5 5-5zm4 0h-4v2h4zm1 0h-1v2h1zm2 0h-2v2h2zm-5 11zv-2h-1zm1 0v-1h-2v1zm-2 2 2-2h-2zm-2-2 2 2v-2zm0-1zh2v-1zm0 1h1v-2h-1zm-1-2 1 2v-2h1zm1-2-1 2h2-1zm1 0zv2h1zm-1 0v1h2v-1zm2-1-2 1h2v1zm2 1-2-1v2-1zm0 1zh-2v1zm0-1h-1v2h1zm2 2-2-2v2zm-2 2 2-2h-2zm4-4v2zm0 1zv2l2-1zm0 0h2l-2-2zm0 0v-2zm0 0v-2l-2 2zm0-1zh-2l2 1zm2 3v2zm0 1zv2l2-1zm0 0h2l-2-2zm0 0v-2zm0 0v-2l-2 2zm0-1zh-2l2 1z" mask="url(#e)"/></g><g filter="url(#f)"><mask id="i" fill="#fff"><path fill-rule="evenodd" d="M34 28zl-1-1zm2 4 1-1-1-1-1 1z" clip-rule="evenodd"/></mask><path fill="url(#g)" fill-rule="evenodd" d="M34 28zl-1-1zm2 4 1-1-1-1-1 1z" clip-rule="evenodd"/><path fill="url(#h)" d="M34 28zm0 0zl1-1zm0-1zh1zm0 0zm0 1zv-1l-1 2zm0 0h-1zm2 3zm0 0zm0-1zm-1 1zm1 0z" mask="url(#i)"/></g><g filter="url(#j)"><mask id="m" fill="#fff"><path d="M30 30h-1v1l-1 1-1-1v-1h-1v-2h1v-1h2v1h1z"/></mask><path fill="url(#k)" d="M30 30h-1v1l-1 1-1-1v-1h-1v-2h1v-1h2v1h1z"/><path fill="url(#l)" d="M29 30zm-2 0zm0-2zm2 0zm1 1h-1v1h1zm-2 1zh1v-1zm0 1zl1-1zm0 0h-1zm0 0v-1h-1v1zm-1-2zv1h1zm-1 0zl1 1zm0 0zm0 0h1v-1zm2-1zh-1v1zm0-1zl-1 1zm0 0h1zm0 0v1h1v-1zm1 2zm1 0zm0 0v1z" mask="url(#m)"/></g><defs><linearGradient id="a" x1="36" x2="15" y1="13" y2="28" gradientUnits="userSpaceOnUse"><stop stop-color="#7891FF"/><stop offset="1" stop-color="#2C51F6"/></linearGradient><linearGradient id="d" x1="24" x2="37" y1="23" y2="39" gradientUnits="userSpaceOnUse"><stop stop-color="#fff" stop-opacity="0"/><stop offset="1" stop-color="#fff" stop-opacity="0"/></linearGradient><linearGradient id="g" x1="36" x2="33" y1="28" y2="28" gradientUnits="userSpaceOnUse"><stop stop-color="#fff"/><stop offset="1" stop-color="#fff" stop-opacity="0"/></linearGradient><linearGradient id="h" x1="34" x2="37" y1="27" y2="30" gradientUnits="userSpaceOnUse"><stop stop-color="#fff" stop-opacity="0"/><stop offset="1" stop-color="#fff" stop-opacity="0"/></linearGradient><linearGradient id="k" x1="30" x2="25" y1="28" y2="28" gradientUnits="userSpaceOnUse"><stop stop-color="#fff"/><stop offset="1" stop-color="#fff" stop-opacity="0"/></linearGradient><linearGradient id="l" x1="26" x2="29" y1="27" y2="31" gradientUnits="userSpaceOnUse"><stop stop-color="#fff" stop-opacity="0"/><stop offset="1" stop-color="#fff" stop-opacity="0"/></linearGradient><filter id="b" width="54" height="50" x="0" y="0" color-interpolation-filters="sRGB" filterUnits="userSpaceOnUse"><feFlood flood-opacity="0" result="BackgroundImageFix"/><feBlend in="SourceGraphic" in2="BackgroundImageFix" result="shape"/><feGaussianBlur result="effect1_foregroundBlur_66_937" stdDeviation="10"/></filter><filter id="c" width="70" height="66" x="-4" y="-4" color-interpolation-filters="sRGB" filterUnits="userSpaceOnUse"><feFlood flood-opacity="0" result="BackgroundImageFix"/><feGaussianBlur in="BackgroundImageFix" stdDeviation="12"/><feComposite in2="SourceAlpha" operator="in" result="effect1_backgroundBlur_66_937"/><feBlend in="SourceGraphic" in2="effect1_backgroundBlur_66_937" result="shape"/></filter><filter id="f" width="33" height="35" x="18" y="12" color-interpolation-filters="sRGB" filterUnits="userSpaceOnUse"><feFlood flood-opacity="0" result="BackgroundImageFix"/><feGaussianBlur in="BackgroundImageFix" stdDeviation="8"/><feComposite in2="SourceAlpha" operator="in" result="effect1_backgroundBlur_66_937"/><feColorMatrix in="SourceAlpha" result="hardAlpha" values="0 0 0 0 0 0 0 0 0 0 0 0 0 0 0 0 0 0 127 0"/><feOffset dx="5" dy="5"/><feGaussianBlur stdDeviation="5"/><feColorMatrix values="0 0 0 0 1 0 0 0 0 0.321569 0 0 0 0 0.54902 0 0 0 0.5 0"/><feBlend in2="effect1_backgroundBlur_66_937" result="effect2_dropShadow_66_937"/><feBlend in="SourceGraphic" in2="effect2_dropShadow_66_937" result="shape"/></filter><filter id="j" width="35" height="35" x="11" y="12" color-interpolation-filters="sRGB" filterUnits="userSpaceOnUse"><feFlood flood-opacity="0" result="BackgroundImageFix"/><feGaussianBlur in="BackgroundImageFix" stdDeviation="8"/><feComposite in2="SourceAlpha" operator="in" result="effect1_backgroundBlur_66_937"/><feColorMatrix in="SourceAlpha" result="hardAlpha" values="0 0 0 0 0 0 0 0 0 0 0 0 0 0 0 0 0 0 127 0"/><feOffset dx="5" dy="5"/><feGaussianBlur stdDeviation="5"/><feColorMatrix values="0 0 0 0 1 0 0 0 0 0.321569 0 0 0 0 0.54902 0 0 0 0.5 0"/><feBlend in2="effect1_backgroundBlur_66_937" result="effect2_dropShadow_66_937"/><feBlend in="SourceGraphic" in2="effect2_dropShadow_66_937" result="shape"/></filter></defs></svg>