<svg xmlns="http://www.w3.org/2000/svg" width="98" height="38" fill="none"><g filter="url(#a)"><rect width="97" height="37" fill="none" rx="10"/><rect width="97" height="37" fill="none" rx="10"/><path fill="#fff" d="M15 26h-3l-2-1 1-1h1l3 1 2-1v-1l-1-1h-1l-1-1-3-1v-3l2-2h2l3 1h1l-1 2-1-1h-4v2l1 1h2l2 1 1 2v2l-2 1zM21 26V15h5l2 1 1 1v3l-1 2h-5v4zm2-6h4v-3h-4zM31 26V15h2v11zM35 26V15h2l6 8v-8h2v11h-2l-6-8v8zM59 26l-3-11h2l3 9h-1l3-9h2l3 9h-1l3-9h2l-4 11h-1l-3-8-3 8zM74 26V15h2v11zM78 26V15h2l6 8v-8h2v11h-2l-6-7v7z"/><path fill="#5E7BFF" d="m56 31-6-2-5-3-2 2h-2l-2-1v-4l1-1 3 1 2 2h1l5-4 4-5 1-4-1-3-3-1-4 1-2 2-2 3v1l1 2h1l2 1v-1 1h-2l-3-1v-5l3-3 3-2h3l4 1 2 3-2 5-4 6-6 4 7 3h5l1-2h1v1l-1 2zm-15-4h2l2-1-2-1-2-1h-1v3z"/></g><defs><filter id="a" width="257" height="197" x="-80" y="-80" color-interpolation-filters="sRGB" filterUnits="userSpaceOnUse"><feFlood flood-opacity="0" result="BackgroundImageFix"/><feGaussianBlur in="BackgroundImageFix" stdDeviation="40"/><feComposite in2="SourceAlpha" operator="in" result="effect1_backgroundBlur_12_24260"/><feBlend in="SourceGraphic" in2="effect1_backgroundBlur_12_24260" result="shape"/></filter></defs></svg>